<?xml version="1.0" standalone="no"?>
<!DOCTYPE svg PUBLIC "-//W3C//DTD SVG 20010904//EN"
 "http://www.w3.org/TR/2001/REC-SVG-20010904/DTD/svg10.dtd">
<svg version="1.0" xmlns="http://www.w3.org/2000/svg"
 width="1000.000000pt" height="1000.000000pt" viewBox="0 0 1000.000000 1000.000000"
 preserveAspectRatio="xMidYMid meet">

<g transform="translate(0.000000,1000.000000) scale(0.100000,-0.100000)"
fill="#1c6da8" stroke="none">
<path d="M2720 7205 c-189 -31 -423 -130 -616 -260 -387 -263 -713 -661 -843
-1028 -92 -261 -93 -497 -5 -736 149 -401 459 -738 872 -949 307 -157 610
-233 1092 -272 506 -41 805 -101 1084 -217 58 -24 71 -34 77 -58 12 -43 67
-95 110 -101 29 -5 54 -23 118 -88 l81 -82 -168 -167 c-135 -133 -181 -172
-225 -192 -49 -21 -57 -29 -68 -65 -22 -72 -2 -110 119 -232 121 -120 161
-140 234 -118 33 9 42 19 63 66 19 43 59 90 190 222 l165 167 163 -165 c126
-127 170 -178 190 -222 23 -49 33 -59 65 -69 73 -21 114 -1 234 119 121 122
141 160 119 232 -11 36 -19 44 -68 65 -44 20 -90 59 -225 192 l-168 167 81 82
c65 65 89 83 119 88 43 7 110 72 110 106 0 23 20 33 184 94 211 80 484 131
871 166 364 33 424 40 580 72 624 125 1108 450 1381 928 60 105 125 262 151
367 23 91 22 318 -1 422 -85 383 -351 777 -731 1086 -255 207 -535 343 -782
380 -232 35 -412 1 -668 -125 -597 -296 -984 -953 -1045 -1775 -43 -570 -103
-889 -224 -1185 -29 -70 -40 -86 -62 -92 -42 -11 -94 -67 -100 -109 -5 -29
-24 -54 -90 -120 l-84 -84 -84 84 c-67 67 -85 91 -90 121 -7 43 -72 110 -107
110 -23 0 -48 49 -104 211 -82 236 -122 463 -165 944 -12 127 -28 275 -36 330
-112 761 -512 1345 -1098 1603 -200 88 -407 119 -596 87z m364 -134 c329 -86
654 -330 871 -656 247 -369 334 -936 208 -1340 -55 -174 -157 -345 -293 -488
-251 -265 -562 -398 -934 -398 -366 -1 -728 108 -996 299 -123 87 -297 262
-382 382 -128 182 -220 404 -241 577 -31 264 84 579 327 898 75 98 267 298
361 375 242 198 515 332 751 370 85 13 236 4 328 -19z m4267 -5 c419 -110 873
-477 1138 -921 148 -249 220 -517 192 -720 -37 -262 -230 -599 -462 -805 -244
-217 -462 -325 -799 -399 -161 -35 -427 -42 -581 -16 -263 45 -475 155 -675
347 -152 147 -254 307 -318 498 -47 142 -66 265 -66 440 0 339 100 685 270
938 193 287 467 503 780 617 166 60 343 67 521 21z m-3122 -2490 c15 -8 35
-29 44 -48 22 -42 117 -360 117 -390 0 -49 -69 -118 -119 -118 -27 0 -354 96
-392 116 -34 17 -59 56 -59 91 0 21 18 43 82 103 45 41 105 100 132 130 131
141 137 145 195 116z m1650 -24 c20 -20 59 -62 87 -92 27 -30 87 -89 132 -130
64 -60 82 -82 82 -103 0 -35 -25 -74 -59 -91 -36 -19 -364 -116 -390 -116 -54
0 -121 67 -121 121 0 14 20 89 45 169 25 80 45 149 45 154 0 25 45 98 68 111
44 24 71 18 111 -23z"/>
<path d="M2720 7016 c-574 -120 -1219 -768 -1326 -1333 -42 -222 11 -444 167
-701 146 -239 392 -458 651 -576 241 -111 607 -175 845 -147 253 29 430 98
616 237 345 259 520 664 479 1109 -20 210 -94 490 -169 639 -61 121 -168 262
-292 387 -184 183 -356 291 -581 364 -103 34 -283 43 -390 21z m715 -431 c56
-55 14 -135 -65 -126 -22 3 -60 49 -60 72 0 27 53 79 80 79 11 0 32 -11 45
-25z m-375 -35 c12 -12 20 -33 20 -54 0 -69 -88 -99 -132 -45 -57 68 50 161
112 99z m-356 -43 c14 -38 -3 -79 -39 -96 -25 -12 -32 -12 -54 0 -14 8 -32 27
-41 42 -13 24 -13 30 0 54 34 60 113 59 134 0z m933 -72 c49 -34 31 -117 -28
-130 -45 -10 -83 20 -87 68 -6 64 61 100 115 62z m-388 -15 c31 -16 45 -64 29
-97 -27 -56 -109 -57 -133 -1 -15 36 -11 53 18 86 22 23 56 28 86 12z m-366
-47 c8 -10 19 -30 22 -45 6 -22 1 -33 -24 -59 -26 -25 -37 -30 -59 -24 -59 15
-81 73 -46 123 19 28 83 31 107 5z m-376 -25 c14 -13 23 -33 23 -50 0 -36 -40
-78 -75 -78 -14 0 -37 11 -50 25 -69 68 31 170 102 103z m969 -106 c30 -38 5
-101 -46 -117 -50 -16 -100 42 -86 99 13 53 97 65 132 18z m-387 -18 c12 -15
21 -38 21 -51 0 -32 -42 -73 -75 -73 -34 0 -75 42 -75 76 0 68 88 100 129 48z
m764 -6 c40 -47 5 -118 -58 -118 -77 0 -102 111 -32 140 30 13 69 3 90 -22z
m-1140 -30 c38 -45 3 -118 -58 -118 -59 0 -93 58 -64 111 22 42 89 46 122 7z
m580 -120 c40 -48 7 -118 -57 -118 -57 0 -97 70 -63 112 33 42 87 45 120 6z
m-369 -41 c13 -37 -3 -79 -37 -95 -66 -32 -138 52 -93 110 34 45 112 36 130
-15z m744 23 c47 -44 16 -130 -47 -130 -45 0 -75 30 -75 75 0 66 74 99 122 55z
m337 -30 c39 -43 14 -111 -46 -125 -37 -9 -82 31 -82 73 0 45 28 72 73 72 24
0 43 -7 55 -20z m-1860 4 c18 -7 45 -55 45 -79 0 -26 -46 -65 -76 -65 -38 0
-74 36 -74 74 0 54 53 90 105 70z m368 -21 c8 -10 19 -30 22 -45 6 -22 1 -33
-24 -59 -26 -25 -37 -30 -59 -24 -60 14 -82 69 -48 120 20 31 84 35 109 8z
m582 -89 c26 -11 45 -62 33 -95 -21 -60 -113 -59 -138 1 -9 23 -9 34 4 58 20
40 57 52 101 36z m400 -49 c33 -32 31 -60 -5 -97 -25 -24 -36 -29 -58 -23 -41
10 -62 34 -62 72 0 68 76 98 125 48z m308 -6 c25 -11 47 -47 47 -75 0 -25 -47
-64 -78 -64 -67 0 -99 88 -46 129 30 24 43 26 77 10z m-1827 -32 c52 -45 26
-127 -41 -127 -75 0 -106 79 -51 127 15 12 36 23 46 23 10 0 31 -11 46 -23z
m713 -3 c28 -35 26 -69 -4 -99 -68 -69 -170 31 -103 102 30 33 80 31 107 -3z
m-375 -15 c51 -40 19 -129 -46 -129 -36 0 -78 40 -78 75 0 33 41 75 73 75 13
0 36 -9 51 -21z m1009 -121 c33 -40 12 -101 -44 -120 -27 -10 -78 19 -85 48
-21 82 75 136 129 72z m326 -24 c12 -15 21 -38 21 -51 0 -32 -42 -73 -75 -73
-33 0 -75 41 -75 73 0 40 36 77 75 77 24 0 39 -7 54 -26z m-794 -9 c48 -47 16
-125 -52 -125 -32 0 -73 42 -73 75 0 33 42 75 75 75 14 0 37 -11 50 -25z
m1115 -13 c28 -34 25 -59 -10 -94 -25 -24 -36 -29 -58 -23 -40 10 -62 34 -62
69 0 79 82 109 130 48z m-1827 -9 c8 -10 19 -30 22 -45 6 -22 1 -33 -24 -59
-26 -25 -37 -30 -59 -24 -61 14 -86 82 -47 125 23 26 85 27 108 3z m313 -26
c55 -47 26 -127 -46 -127 -101 0 -99 145 2 149 9 1 29 -10 44 -22z m1024 -127
c27 -50 3 -101 -52 -115 -22 -6 -33 -1 -58 23 -16 17 -30 39 -30 49 0 25 28
63 54 72 27 10 73 -6 86 -29z m313 -12 c33 -39 17 -99 -31 -116 -40 -14 -89 8
-98 44 -21 82 75 136 129 72z m-1850 0 c49 -26 60 -69 27 -110 -25 -33 -49
-39 -88 -22 -54 22 -55 104 -2 131 31 16 36 16 63 1z m1130 -30 c37 -44 4
-118 -55 -118 -56 0 -98 71 -65 112 33 42 87 45 120 6z m-784 -14 c26 -33 27
-65 4 -93 -44 -52 -133 -24 -133 42 0 70 87 105 129 51z m337 -32 c30 -38 5
-101 -46 -117 -50 -16 -100 42 -86 99 13 53 97 65 132 18z m981 -94 c47 -44
16 -128 -48 -128 -33 0 -79 38 -79 65 0 22 27 72 42 78 29 12 63 6 85 -15z
m336 -20 c23 -27 22 -69 -3 -96 -60 -64 -161 11 -119 89 22 42 89 46 122 7z
m-698 -13 c14 -13 25 -36 25 -50 0 -33 -41 -75 -73 -75 -69 0 -104 88 -51 129
35 28 69 26 99 -4z m-1129 -23 c37 -48 0 -116 -61 -116 -89 0 -101 119 -15
146 20 7 60 -9 76 -30z m327 -24 c40 -48 7 -118 -57 -118 -57 0 -97 70 -63
112 33 42 87 45 120 6z m375 -18 c47 -44 16 -130 -47 -130 -45 0 -75 30 -75
75 0 66 74 99 122 55z m942 -108 c23 -28 24 -41 9 -76 -17 -36 -60 -51 -96
-34 -56 27 -57 109 -1 132 39 17 63 11 88 -22z m-345 3 c29 -28 31 -45 10 -85
-33 -64 -127 -41 -133 33 -6 71 72 104 123 52z m-1491 -16 c19 -15 26 -30 26
-55 0 -73 -78 -103 -127 -48 -31 34 -29 60 6 95 35 34 59 36 95 8z m326 -19
c26 -14 42 -65 28 -95 -25 -56 -114 -53 -138 5 -9 23 -9 34 4 58 21 41 64 54
106 32z m772 -20 c24 -25 29 -36 23 -58 -10 -41 -34 -62 -70 -62 -74 0 -105
80 -51 127 36 31 61 29 98 -7z m-377 -25 c33 -32 31 -60 -5 -97 -25 -24 -36
-29 -58 -23 -41 10 -62 34 -62 72 0 68 76 98 125 48z m578 -117 c23 -27 22
-69 -3 -96 -60 -64 -161 11 -119 89 22 42 89 46 122 7z m-1133 -36 c23 -28 24
-41 9 -75 -30 -67 -139 -48 -139 24 0 42 10 60 43 74 38 16 62 9 87 -23z m755
3 c14 -13 25 -36 25 -50 0 -34 -42 -75 -76 -75 -37 0 -74 36 -74 72 0 36 40
78 75 78 14 0 37 -11 50 -25z m-373 -28 c33 -42 12 -100 -43 -119 -27 -10 -78
19 -85 48 -21 82 77 136 128 71z m923 -63 c8 -4 23 -20 31 -36 32 -61 -30
-125 -95 -98 -41 17 -57 59 -37 98 20 39 57 52 101 36z m-357 -44 c29 -27 29
-83 2 -110 -48 -48 -139 -2 -126 63 12 62 80 88 124 47z m-368 -40 c43 -43 6
-130 -55 -130 -33 0 -75 41 -75 73 0 13 9 36 21 51 26 33 79 36 109 6z m-386
-21 c51 -40 19 -129 -46 -129 -36 0 -78 40 -78 75 0 33 41 75 73 75 13 0 36
-9 51 -21z m943 -91 c48 -45 18 -128 -47 -128 -34 0 -80 38 -80 65 0 22 27 72
42 78 29 12 63 6 85 -15z m-362 -33 c29 -28 31 -45 10 -85 -33 -64 -127 -41
-133 33 -6 71 72 104 123 52z m-370 -35 c39 -43 14 -111 -47 -125 -22 -6 -33
-1 -58 23 -35 36 -38 60 -9 96 26 33 86 37 114 6z"/>
<path d="M6943 7011 c-146 -40 -271 -97 -408 -189 -115 -76 -195 -146 -291
-252 -232 -258 -361 -571 -395 -962 -34 -379 79 -717 324 -975 264 -278 620
-409 1015 -375 318 28 596 119 805 265 182 127 319 266 430 437 159 247 220
469 188 690 -79 537 -697 1197 -1266 1350 -117 32 -306 37 -402 11z m-282
-430 c35 -35 37 -61 6 -97 -27 -31 -64 -35 -102 -10 -36 24 -36 86 1 115 36
28 60 26 95 -8z m384 -36 c29 -28 32 -64 8 -94 -45 -54 -133 -24 -133 45 0 69
76 99 125 49z m375 -23 c28 -34 25 -59 -10 -94 -25 -24 -36 -29 -58 -24 -35 9
-62 41 -62 75 0 74 84 102 130 43z m-970 -82 c24 -13 39 -59 29 -87 -22 -59
-106 -67 -134 -13 -21 40 -19 57 10 85 25 26 63 32 95 15z m387 -32 c29 -33
33 -50 18 -86 -24 -56 -106 -55 -133 1 -36 74 61 144 115 85z m387 -40 c35
-50 13 -108 -46 -123 -22 -6 -33 -1 -58 23 -35 36 -38 60 -9 96 27 35 90 37
113 4z m375 -24 c12 -15 21 -38 21 -51 0 -32 -42 -73 -75 -73 -34 0 -75 42
-75 76 0 68 88 100 129 48z m-945 -117 c13 -37 -3 -79 -37 -95 -66 -32 -138
52 -93 110 34 45 112 36 130 -15z m-391 -9 c38 -45 3 -118 -58 -118 -59 0 -93
58 -64 111 22 42 89 46 122 7z m754 10 c14 -13 23 -33 23 -50 0 -36 -40 -78
-75 -78 -14 0 -37 11 -50 25 -69 68 31 170 102 103z m386 -40 c40 -47 5 -118
-58 -118 -77 0 -102 111 -32 140 30 13 69 3 90 -22z m-604 -103 c46 -23 54
-66 20 -109 -15 -19 -30 -26 -55 -26 -85 0 -104 114 -24 143 24 9 29 8 59 -8z
m411 -56 c26 -63 -36 -126 -97 -97 -56 27 -57 109 -1 132 42 18 82 4 98 -35z
m-779 22 c52 -42 17 -131 -52 -131 -40 0 -69 32 -69 75 0 65 70 97 121 56z
m-326 -31 c28 -31 24 -79 -10 -107 -67 -58 -160 41 -100 107 12 13 31 20 55
20 24 0 43 -7 55 -20z m1832 -12 c46 -44 14 -128 -49 -128 -32 0 -78 39 -78
65 0 22 27 72 42 78 29 12 63 6 85 -15z m-341 -13 c34 -51 12 -106 -48 -120
-22 -6 -33 -1 -59 24 -25 26 -30 37 -24 59 11 43 34 62 76 62 30 0 42 -6 55
-25z m-621 -81 c8 -4 23 -20 31 -36 20 -40 4 -81 -38 -99 -26 -10 -35 -10 -57
2 -87 49 -30 169 64 133z m-365 -44 c25 -25 26 -81 3 -103 -10 -8 -30 -19 -45
-22 -22 -6 -33 -1 -58 23 -36 37 -38 65 -5 97 30 31 77 33 105 5z m-336 -21
c53 -41 21 -129 -46 -129 -56 0 -97 70 -65 111 32 41 73 48 111 18z m1143 -21
c33 -30 31 -80 -3 -107 -35 -28 -69 -26 -99 4 -69 68 31 170 102 103z m699 -1
c55 -48 24 -127 -51 -127 -36 0 -60 21 -70 62 -6 22 -1 33 23 58 37 36 62 38
98 7z m-331 -22 c14 -13 25 -36 25 -50 0 -14 -11 -37 -25 -50 -69 -70 -170 30
-103 102 29 31 72 30 103 -2z m-992 -117 c23 -27 22 -73 -3 -98 -61 -61 -161
14 -119 91 22 42 89 46 122 7z m-334 -24 c28 -35 26 -69 -4 -99 -68 -69 -170
31 -103 102 30 33 80 31 107 -3z m-309 -24 c27 -50 3 -101 -52 -115 -22 -6
-33 -1 -58 23 -16 17 -30 39 -30 49 0 25 28 63 54 72 27 10 73 -6 86 -29z
m1095 15 c14 -13 25 -36 25 -50 0 -33 -41 -75 -73 -75 -38 0 -77 36 -77 71 0
37 40 79 75 79 14 0 37 -11 50 -25z m720 -25 c39 -43 14 -111 -47 -125 -22 -6
-33 -1 -59 24 -25 26 -30 37 -24 59 10 43 34 62 75 62 24 0 43 -7 55 -20z
m-342 -11 c73 -33 47 -139 -33 -139 -72 0 -101 80 -46 127 30 26 44 28 79 12z
m-983 -137 c28 -34 25 -59 -10 -94 -25 -24 -36 -29 -58 -23 -40 10 -62 34 -62
69 0 79 82 109 130 48z m-317 -14 c33 -39 17 -99 -31 -116 -40 -14 -89 8 -98
44 -21 82 75 136 129 72z m1820 -20 c63 -74 -45 -165 -110 -92 -25 28 -29 60
-10 85 33 43 87 46 120 7z m-1124 7 c48 -24 55 -72 16 -110 -30 -31 -71 -32
-102 -3 -37 35 -26 99 20 118 31 12 34 12 66 -5z m798 -27 c52 -49 8 -137 -62
-124 -61 12 -83 71 -44 120 26 33 73 35 106 4z m-313 -51 c13 -37 -3 -79 -37
-95 -66 -32 -138 52 -93 110 34 45 112 36 130 -15z m-1029 -63 c18 -7 45 -55
45 -79 0 -27 -46 -65 -79 -65 -63 0 -94 80 -49 127 21 23 51 29 83 17z m-302
-36 c60 -71 -49 -164 -113 -96 -22 24 -26 58 -9 89 22 42 89 46 122 7z m682
-13 c14 -13 25 -36 25 -50 0 -14 -11 -37 -25 -50 -13 -14 -36 -25 -50 -25 -14
0 -37 11 -50 25 -14 13 -25 36 -25 50 0 14 11 37 25 50 13 14 36 25 50 25 14
0 37 -11 50 -25z m1145 -23 c41 -52 11 -116 -55 -116 -85 0 -104 113 -24 142
32 12 56 4 79 -26z m-351 -7 c46 -23 54 -66 20 -109 -40 -50 -129 -23 -129 40
0 34 17 63 43 74 31 12 34 12 66 -5z m-368 -34 c52 -42 17 -131 -52 -131 -40
0 -69 32 -69 75 0 65 70 97 121 56z m-917 -124 c20 -55 -33 -118 -84 -102 -29
9 -60 45 -60 70 0 27 27 64 54 75 31 11 79 -11 90 -43z m327 22 c14 -14 19
-30 17 -56 -6 -74 -100 -97 -133 -33 -21 40 -19 57 10 85 30 31 77 33 106 4z
m1480 -28 c35 -35 37 -61 7 -95 -50 -55 -128 -25 -128 48 0 25 7 40 26 55 36
28 60 26 95 -8z m-1097 -23 c54 -49 25 -128 -47 -128 -38 0 -62 21 -72 62 -6
22 -1 33 23 58 36 36 62 38 96 8z m751 16 c8 -4 23 -20 31 -36 20 -40 4 -81
-38 -99 -26 -10 -35 -10 -57 2 -87 49 -30 169 64 133z m-365 -44 c25 -25 26
-81 3 -103 -10 -8 -30 -19 -45 -22 -22 -6 -33 -1 -58 23 -36 37 -38 65 -5 97
30 31 77 33 105 5z m-567 -122 c60 -71 -49 -164 -113 -96 -22 24 -26 58 -9 89
22 42 89 46 122 7z m1137 -38 c47 -88 -66 -160 -127 -81 -26 34 -4 94 41 110
27 10 73 -6 86 -29z m-775 5 c15 -14 25 -36 25 -51 0 -37 -36 -74 -72 -74 -36
0 -78 40 -78 75 0 33 42 75 75 75 14 0 37 -11 50 -25z m388 -27 c46 -54 0
-128 -73 -118 -26 3 -60 43 -60 69 0 28 25 65 50 74 24 9 64 -2 83 -25z m-968
-64 c8 -4 23 -20 31 -36 32 -61 -30 -125 -95 -98 -41 17 -57 59 -37 98 20 39
57 52 101 36z m384 -41 c11 -10 24 -32 27 -50 5 -26 1 -37 -19 -57 -51 -51
-127 -22 -127 49 0 64 70 98 119 58z m380 -49 c12 -15 21 -38 21 -51 0 -32
-42 -73 -75 -73 -36 0 -75 42 -75 80 0 67 88 97 129 44z m376 -19 c14 -13 25
-36 25 -50 0 -34 -42 -75 -76 -75 -68 0 -100 88 -48 129 35 28 69 26 99 -4z
m-960 -71 c18 -7 45 -55 45 -79 0 -9 -11 -27 -25 -40 -48 -49 -125 -20 -125
47 0 56 52 92 105 72z m386 -45 c14 -14 19 -30 17 -56 -6 -74 -100 -97 -133
-33 -21 40 -19 57 10 85 30 31 77 33 106 4z m378 -45 c29 -36 26 -60 -9 -96
-25 -24 -36 -29 -58 -23 -61 14 -86 82 -47 125 28 31 88 27 114 -6z"/>
<path d="M4870 6803 c-25 -9 -53 -22 -64 -29 -17 -12 -15 -13 20 -21 22 -4
100 -8 174 -8 74 0 152 4 174 8 35 8 37 9 20 22 -62 43 -237 58 -324 28z"/>
<path d="M4698 6683 c-63 -66 -106 -203 -94 -296 9 -66 40 -146 77 -197 34
-47 14 -45 216 -20 84 10 122 10 205 0 199 -25 181 -26 212 14 65 86 94 201
76 304 -13 77 -51 160 -90 197 l-27 26 -89 -17 c-110 -21 -263 -21 -369 0 -44
9 -83 16 -86 16 -3 0 -17 -12 -31 -27z"/>
<path d="M4860 6106 c-74 -11 -74 -11 -49 -28 39 -25 127 -48 187 -48 59 0
153 24 192 49 24 16 23 16 -55 28 -98 14 -176 14 -275 -1z"/>
</g>
</svg>
