<?xml version="1.0" standalone="no"?>
<!DOCTYPE svg PUBLIC "-//W3C//DTD SVG 20010904//EN"
 "http://www.w3.org/TR/2001/REC-SVG-20010904/DTD/svg10.dtd">
<svg version="1.0" xmlns="http://www.w3.org/2000/svg"
 width="1000.000000pt" height="1000.000000pt" viewBox="0 0 1000.000000 1000.000000"
 preserveAspectRatio="xMidYMid meet">

<g transform="translate(0.000000,1000.000000) scale(0.100000,-0.100000)"
fill="#000000" stroke="none">
<path d="M3061 7116 c-28 -16 -50 -52 -51 -84 0 -31 26 -79 49 -92 13 -7 639
-10 1930 -10 1312 0 1926 -3 1960 -11 61 -13 115 -62 132 -120 11 -34 8 -70
-18 -252 -75 -532 -394 -2797 -399 -2835 l-5 -42 -936 2 -935 3 -18 68 c-63
243 -255 436 -500 503 -89 25 -273 25 -355 1 -182 -54 -325 -159 -420 -312
-43 -68 -95 -203 -95 -244 0 -21 -2 -21 -360 -21 -280 0 -368 3 -393 14 -44
18 -95 78 -103 122 -4 23 7 138 30 308 20 149 36 281 36 294 -1 95 -132 136
-184 58 -9 -14 -31 -141 -56 -325 -36 -259 -40 -310 -32 -360 27 -154 142
-276 294 -311 24 -5 202 -10 403 -10 l360 0 17 -71 c28 -115 81 -211 170 -304
89 -94 175 -150 294 -192 71 -25 92 -27 214 -27 122 0 143 2 215 28 237 82
406 261 465 490 l18 71 1113 0 1112 0 14 -58 c43 -191 188 -373 368 -462 204
-100 418 -100 625 1 81 40 109 60 185 138 101 102 153 190 183 314 l17 70 110
4 c102 4 115 7 173 38 36 19 79 52 98 75 68 83 70 95 144 686 74 586 75 610
33 694 -8 16 -164 295 -346 619 -218 386 -345 602 -370 627 -21 21 -59 48 -85
61 -47 23 -50 23 -484 26 -337 2 -438 5 -438 15 0 7 13 109 30 228 24 177 28
227 20 275 -22 132 -111 249 -228 296 l-57 23 -1960 2 c-1615 2 -1964 0 -1984
-11z m5026 -1052 c32 -24 688 -1179 698 -1229 9 -48 -122 -1072 -141 -1105
-28 -47 -63 -60 -157 -60 l-84 0 -13 63 c-20 92 -89 222 -160 300 -100 109
-203 173 -340 213 -88 25 -269 25 -360 0 -245 -67 -439 -261 -499 -498 l-19
-73 -66 -3 c-56 -2 -66 0 -66 14 0 17 315 2310 325 2372 l6 33 424 -3 c411 -3
424 -4 452 -24z m-3895 -2015 c91 -19 175 -65 247 -138 203 -202 200 -508 -8
-704 -103 -97 -206 -139 -341 -139 -94 0 -145 13 -232 59 -330 172 -350 653
-35 851 117 74 241 98 369 71z m3670 -14 c174 -56 312 -222 339 -410 28 -197
-87 -412 -270 -504 -80 -41 -132 -53 -226 -52 -240 0 -445 177 -487 418 -42
247 125 496 375 559 68 17 197 12 269 -11z"/>
<path d="M7371 5918 c-69 -47 -68 -44 -122 -453 -27 -208 -49 -390 -49 -405 0
-37 32 -92 70 -117 l33 -23 499 0 499 0 42 39 c41 39 42 40 42 108 l0 68 -194
378 c-150 293 -200 382 -225 400 -30 21 -40 22 -296 25 -263 3 -266 3 -299
-20z m626 -483 c84 -165 152 -303 153 -307 0 -5 -164 -8 -364 -8 -201 0 -367
3 -369 8 -4 8 69 578 78 599 3 11 42 13 177 11 l173 -3 152 -300z"/>
<path d="M1787 6669 c-24 -14 -47 -62 -47 -99 0 -21 9 -41 29 -61 l29 -29
1362 0 1362 0 29 29 c20 20 29 40 29 61 0 38 -24 86 -49 100 -27 14 -2719 13
-2744 -1z"/>
<path d="M1062 6105 c-39 -17 -66 -72 -57 -116 4 -16 20 -40 37 -54 l30 -25
1355 0 1355 0 29 29 c52 53 34 147 -33 170 -22 8 -436 11 -1357 11 -1126 -1
-1331 -3 -1359 -15z"/>
<path d="M1746 5469 c-35 -41 -35 -97 -2 -136 l24 -28 1362 -3 1362 -2 34 34
c22 22 34 44 34 60 0 35 -25 83 -49 96 -13 7 -466 10 -1379 10 l-1360 0 -26
-31z"/>
<path d="M1369 4877 c-48 -37 -53 -115 -10 -158 l29 -29 1037 0 1037 0 29 29
c23 23 29 38 29 71 0 33 -6 48 -29 71 l-29 29 -1039 0 c-800 -1 -1042 -3
-1054 -13z"/>
</g>
</svg>
