<?xml version="1.0" standalone="no"?>
<!DOCTYPE svg PUBLIC "-//W3C//DTD SVG 20010904//EN"
 "http://www.w3.org/TR/2001/REC-SVG-20010904/DTD/svg10.dtd">
<svg version="1.0" xmlns="http://www.w3.org/2000/svg"
 width="750.000000pt" height="750.000000pt" viewBox="0 0 750.000000 750.000000"
 preserveAspectRatio="xMidYMid meet">

<g transform="translate(0.000000,750.000000) scale(0.100000,-0.100000)"
fill="#1c6da8" stroke="none">
<path d="M3695 6698 c-108 -55 -153 -144 -177 -348 -15 -120 -16 -599 -1 -700
8 -59 10 -63 21 -43 10 17 10 47 2 130 -20 213 -8 567 25 718 22 99 60 163
120 203 45 31 55 34 108 30 46 -3 63 -10 87 -33 41 -39 61 -106 61 -206 0
-104 -63 -750 -73 -747 -4 2 -32 38 -62 81 l-54 78 -44 -63 c-36 -51 -439
-639 -442 -645 -1 -1 -174 81 -386 182 -211 102 -386 182 -389 179 -3 -3 -20
-192 -37 -421 -18 -228 -36 -419 -41 -423 -4 -4 -197 -22 -428 -40 -231 -17
-421 -33 -422 -33 -1 -1 82 -175 183 -386 101 -211 182 -386 180 -390 -3 -4
-162 -114 -354 -246 -341 -233 -349 -239 -328 -255 11 -9 163 -114 336 -233
173 -118 323 -222 333 -229 17 -13 7 -38 -166 -398 l-184 -385 46 -7 c25 -3
215 -18 421 -33 206 -15 379 -31 383 -35 5 -4 23 -195 40 -423 18 -229 35
-418 38 -422 4 -3 176 75 384 175 208 99 381 180 385 180 4 0 114 -155 245
-345 131 -190 241 -347 244 -350 4 -2 115 153 246 345 132 192 244 350 248
350 5 0 181 -83 393 -184 289 -139 384 -180 384 -168 0 60 63 838 68 843 4 3
195 20 426 37 230 17 420 33 422 35 2 2 -77 172 -175 378 -99 206 -181 379
-183 386 -2 6 152 118 342 248 190 130 349 240 353 244 4 4 -152 117 -347 251
-291 199 -354 245 -347 259 34 63 361 754 359 756 -2 2 -192 18 -423 36 -231
17 -423 35 -427 38 -3 3 -20 195 -38 426 -18 231 -33 421 -35 423 -2 3 -612
-286 -727 -344 l-47 -24 -171 250 -170 249 35 349 c48 479 46 573 -12 650 -55
73 -146 93 -228 50z m104 -1757 c12 -8 13 -16 3 -49 -20 -65 -36 -71 -67 -22
-19 30 -30 39 -37 32 -13 -13 35 -100 59 -109 21 -8 56 35 74 89 l13 40 23
-28 c50 -62 39 -151 -25 -203 -30 -26 -46 -31 -87 -31 -79 0 -123 34 -146 113
-18 62 25 140 91 166 32 12 81 13 99 2z m616 -660 c66 -30 90 -64 90 -125 -1
-76 -42 -152 -137 -253 -57 -60 -77 -87 -70 -96 6 -7 13 -30 16 -51 5 -32 2
-47 -19 -77 -14 -21 -25 -45 -25 -54 0 -8 -8 -15 -18 -15 -12 0 -25 -14 -37
-40 l-18 -40 29 -42 c16 -23 47 -62 69 -87 106 -121 117 -139 117 -192 0 -57
-8 -72 -26 -46 -7 9 -23 17 -34 17 -22 0 -37 25 -67 110 -8 24 -30 47 -66 73
-30 21 -65 45 -77 54 -23 16 -25 15 -64 -30 -22 -26 -45 -47 -52 -47 -8 0 -25
9 -39 21 l-27 20 -13 -33 c-13 -30 -12 -35 4 -51 11 -10 19 -24 19 -32 0 -8
28 -22 73 -36 95 -30 306 -135 314 -157 3 -9 22 -60 43 -112 21 -52 52 -149
70 -215 46 -171 76 -196 191 -159 57 19 79 14 79 -19 0 -25 -30 -58 -84 -91
-18 -12 -55 -36 -81 -54 -27 -17 -57 -32 -66 -32 -20 0 -59 76 -56 108 1 19
-44 112 -93 189 -17 26 -46 90 -66 142 -21 53 -41 101 -46 107 -8 11 -77 22
-267 43 -75 8 -87 7 -115 -10 -38 -23 -64 -24 -87 -3 -16 14 -18 14 -29 -6
-11 -20 -17 -22 -61 -16 -27 4 -49 3 -49 -2 0 -5 -38 -39 -85 -75 -47 -37 -96
-85 -110 -106 -25 -40 -77 -81 -150 -119 -22 -11 -62 -44 -90 -72 -27 -29 -75
-69 -107 -91 -67 -46 -118 -105 -118 -137 0 -15 -11 -29 -35 -43 -20 -12 -40
-30 -45 -40 -13 -23 -80 -44 -113 -35 -58 14 -42 61 48 141 117 105 159 150
222 238 49 68 78 97 130 131 38 25 77 60 89 78 202 318 214 341 214 413 0 17
11 47 25 67 23 34 92 203 121 298 8 25 14 72 14 105 0 72 21 112 78 150 50 33
82 78 82 112 0 16 5 54 11 85 11 51 16 59 47 74 58 27 105 29 155 5 39 -19 46
-28 55 -64 5 -23 8 -55 7 -72 -2 -16 -4 -34 -4 -38 -1 -5 -6 -5 -11 -2 -21 13
-22 -27 -2 -68 11 -23 27 -79 36 -124 8 -46 21 -94 29 -109 l14 -26 23 38 c12
22 24 50 25 64 3 42 16 70 36 80 27 15 24 41 -17 122 -47 94 -64 151 -64 221
0 109 49 157 160 157 42 0 79 -7 105 -19z"/>
<path d="M4280 4250 c0 -5 5 -10 10 -10 6 0 10 5 10 10 0 6 -4 10 -10 10 -5 0
-10 -4 -10 -10z"/>
<path d="M4315 4251 c-3 -5 -1 -12 5 -16 5 -3 10 1 10 9 0 18 -6 21 -15 7z"/>
<path d="M4350 4240 c0 -5 5 -10 10 -10 6 0 10 5 10 10 0 6 -4 10 -10 10 -5 0
-10 -4 -10 -10z"/>
<path d="M4385 4230 c3 -5 8 -10 11 -10 2 0 4 5 4 10 0 6 -5 10 -11 10 -5 0
-7 -4 -4 -10z"/>
<path d="M4240 4220 c0 -5 5 -10 10 -10 6 0 10 5 10 10 0 6 -4 10 -10 10 -5 0
-10 -4 -10 -10z"/>
<path d="M4275 4220 c-3 -5 1 -10 10 -10 9 0 13 5 10 10 -3 6 -8 10 -10 10 -2
0 -7 -4 -10 -10z"/>
<path d="M4310 4210 c0 -5 5 -10 10 -10 6 0 10 5 10 10 0 6 -4 10 -10 10 -5 0
-10 -4 -10 -10z"/>
<path d="M4340 4210 c0 -5 5 -10 10 -10 6 0 10 5 10 10 0 6 -4 10 -10 10 -5 0
-10 -4 -10 -10z"/>
<path d="M4205 4201 c-3 -5 -1 -12 5 -16 5 -3 10 1 10 9 0 18 -6 21 -15 7z"/>
<path d="M4380 4200 c0 -5 5 -10 10 -10 6 0 10 5 10 10 0 6 -4 10 -10 10 -5 0
-10 -4 -10 -10z"/>
<path d="M4408 4185 c-3 -14 -1 -28 3 -31 5 -3 9 1 9 10 0 8 3 21 6 30 3 9 2
16 -4 16 -5 0 -12 -11 -14 -25z"/>
<path d="M4240 4190 c0 -5 5 -10 10 -10 6 0 10 5 10 10 0 6 -4 10 -10 10 -5 0
-10 -4 -10 -10z"/>
<path d="M4276 4191 c-4 -7 -5 -15 -2 -18 9 -9 19 4 14 18 -4 11 -6 11 -12 0z"/>
<path d="M4300 4180 c0 -5 7 -10 16 -10 8 0 12 5 9 10 -3 6 -10 10 -16 10 -5
0 -9 -4 -9 -10z"/>
<path d="M4340 4169 c0 -5 5 -7 10 -4 6 3 10 8 10 11 0 2 -4 4 -10 4 -5 0 -10
-5 -10 -11z"/>
<path d="M4370 4170 c0 -5 5 -10 10 -10 6 0 10 5 10 10 0 6 -4 10 -10 10 -5 0
-10 -4 -10 -10z"/>
<path d="M4200 4160 c0 -5 5 -10 10 -10 6 0 10 5 10 10 0 6 -4 10 -10 10 -5 0
-10 -4 -10 -10z"/>
<path d="M4230 4161 c0 -6 5 -13 10 -16 6 -3 10 1 10 9 0 9 -4 16 -10 16 -5 0
-10 -4 -10 -9z"/>
<path d="M4435 4161 c-6 -11 9 -23 19 -14 9 9 7 23 -3 23 -6 0 -12 -4 -16 -9z"/>
<path d="M4270 4150 c0 -5 5 -10 10 -10 6 0 10 5 10 10 0 6 -4 10 -10 10 -5 0
-10 -4 -10 -10z"/>
<path d="M4300 4150 c0 -5 5 -10 11 -10 5 0 7 5 4 10 -3 6 -8 10 -11 10 -2 0
-4 -4 -4 -10z"/>
<path d="M4330 4140 c0 -5 5 -10 10 -10 6 0 10 5 10 10 0 6 -4 10 -10 10 -5 0
-10 -4 -10 -10z"/>
<path d="M4366 4141 c-4 -5 -2 -12 3 -15 5 -4 12 -2 15 3 4 5 2 12 -3 15 -5 4
-12 2 -15 -3z"/>
<path d="M4190 4130 c0 -5 7 -10 16 -10 8 0 12 5 9 10 -3 6 -10 10 -16 10 -5
0 -9 -4 -9 -10z"/>
<path d="M4400 4130 c0 -5 5 -10 10 -10 6 0 10 5 10 10 0 6 -4 10 -10 10 -5 0
-10 -4 -10 -10z"/>
<path d="M4230 4119 c0 -5 5 -7 10 -4 6 3 10 8 10 11 0 2 -4 4 -10 4 -5 0 -10
-5 -10 -11z"/>
<path d="M4260 4120 c0 -5 5 -10 10 -10 6 0 10 5 10 10 0 6 -4 10 -10 10 -5 0
-10 -4 -10 -10z"/>
<path d="M4435 4120 c3 -5 8 -10 11 -10 2 0 4 5 4 10 0 6 -5 10 -11 10 -5 0
-7 -4 -4 -10z"/>
<path d="M4290 4110 c0 -5 5 -10 10 -10 6 0 10 5 10 10 0 6 -4 10 -10 10 -5 0
-10 -4 -10 -10z"/>
<path d="M4326 4111 c-4 -5 -2 -12 3 -15 5 -4 12 -2 15 3 4 5 2 12 -3 15 -5 4
-12 2 -15 -3z"/>
<path d="M4190 4094 c0 -8 5 -12 10 -9 6 4 8 11 5 16 -9 14 -15 11 -15 -7z"/>
<path d="M4360 4100 c0 -5 5 -10 10 -10 6 0 10 5 10 10 0 6 -4 10 -10 10 -5 0
-10 -4 -10 -10z"/>
<path d="M4395 4100 c-3 -5 1 -10 10 -10 9 0 13 5 10 10 -3 6 -8 10 -10 10 -2
0 -7 -4 -10 -10z"/>
<path d="M4220 4090 c0 -5 5 -10 10 -10 6 0 10 5 10 10 0 6 -4 10 -10 10 -5 0
-10 -4 -10 -10z"/>
<path d="M4256 4091 c-4 -5 -2 -12 3 -15 5 -4 12 -2 15 3 4 5 2 12 -3 15 -5 4
-12 2 -15 -3z"/>
<path d="M4430 4090 c0 -5 5 -10 10 -10 6 0 10 5 10 10 0 6 -4 10 -10 10 -5 0
-10 -4 -10 -10z"/>
<path d="M4290 4080 c0 -5 5 -10 10 -10 6 0 10 5 10 10 0 6 -4 10 -10 10 -5 0
-10 -4 -10 -10z"/>
<path d="M4320 4070 c0 -5 5 -10 10 -10 6 0 10 5 10 10 0 6 -4 10 -10 10 -5 0
-10 -4 -10 -10z"/>
<path d="M4355 4070 c-3 -5 1 -10 10 -10 9 0 13 5 10 10 -3 6 -8 10 -10 10 -2
0 -7 -4 -10 -10z"/>
<path d="M4215 4060 c-3 -5 1 -10 10 -10 9 0 13 5 10 10 -3 6 -8 10 -10 10 -2
0 -7 -4 -10 -10z"/>
<path d="M4390 4060 c0 -5 5 -10 10 -10 6 0 10 5 10 10 0 6 -4 10 -10 10 -5 0
-10 -4 -10 -10z"/>
<path d="M4420 4060 c0 -5 5 -10 10 -10 6 0 10 5 10 10 0 6 -4 10 -10 10 -5 0
-10 -4 -10 -10z"/>
<path d="M4250 4050 c0 -5 5 -10 10 -10 6 0 10 5 10 10 0 6 -4 10 -10 10 -5 0
-10 -4 -10 -10z"/>
<path d="M4286 4051 c-4 -5 -2 -12 3 -15 5 -4 12 -2 15 3 4 5 2 12 -3 15 -5 4
-12 2 -15 -3z"/>
<path d="M4320 4040 c0 -5 5 -10 10 -10 6 0 10 5 10 10 0 6 -4 10 -10 10 -5 0
-10 -4 -10 -10z"/>
<path d="M4350 4030 c0 -5 5 -10 10 -10 6 0 10 5 10 10 0 6 -4 10 -10 10 -5 0
-10 -4 -10 -10z"/>
<path d="M4380 4030 c0 -5 5 -10 10 -10 6 0 10 5 10 10 0 6 -4 10 -10 10 -5 0
-10 -4 -10 -10z"/>
<path d="M4245 4021 c-3 -5 -1 -12 5 -16 5 -3 10 1 10 9 0 18 -6 21 -15 7z"/>
<path d="M4275 4010 c3 -5 10 -10 16 -10 5 0 9 5 9 10 0 6 -7 10 -16 10 -8 0
-12 -4 -9 -10z"/>
<path d="M4310 4010 c0 -5 5 -10 10 -10 6 0 10 5 10 10 0 6 -4 10 -10 10 -5 0
-10 -4 -10 -10z"/>
<path d="M4340 4000 c0 -5 5 -10 10 -10 6 0 10 5 10 10 0 6 -4 10 -10 10 -5 0
-10 -4 -10 -10z"/>
<path d="M4245 3914 c9 -22 19 -45 22 -51 3 -7 9 -13 13 -13 9 0 70 71 70 81
0 4 -17 7 -37 6 -21 0 -48 3 -61 8 l-23 8 16 -39z"/>
<path d="M4020 3564 c-20 -52 -8 -70 24 -35 14 15 15 24 6 40 -14 27 -18 26
-30 -5z"/>
</g>
</svg>
