<?xml version="1.0" standalone="no"?>
<!DOCTYPE svg PUBLIC "-//W3C//DTD SVG 20010904//EN"
 "http://www.w3.org/TR/2001/REC-SVG-20010904/DTD/svg10.dtd">
<svg version="1.0" xmlns="http://www.w3.org/2000/svg"
 width="1000.000000pt" height="1000.000000pt" viewBox="0 0 1000.000000 1000.000000"
 preserveAspectRatio="xMidYMid meet">

<g transform="translate(0.000000,1000.000000) scale(0.100000,-0.100000)"
fill="#1c6da8" stroke="none">
<path d="M4938 8922 c-13 -16 -79 -147 -147 -293 -68 -145 -124 -265 -125
-266 0 0 -125 -20 -276 -42 -303 -45 -357 -59 -366 -97 -12 -48 9 -78 159
-233 83 -86 180 -186 216 -223 l64 -67 -47 -284 c-50 -311 -54 -361 -30 -396
29 -40 72 -24 346 128 139 78 258 141 263 141 6 0 105 -52 220 -116 235 -131
322 -174 348 -174 9 0 26 9 37 20 29 29 26 77 -26 398 l-47 284 69 71 c38 40
128 133 200 207 72 74 140 149 152 167 40 57 25 101 -40 122 -18 6 -157 29
-308 52 -151 22 -276 42 -276 42 -1 1 -43 92 -94 202 -171 370 -181 385 -236
385 -23 0 -39 -8 -56 -28z"/>
<path d="M3103 7968 c-25 -12 -69 -95 -183 -341 -55 -118 -78 -159 -94 -162
-12 -3 -113 -19 -226 -36 -254 -38 -287 -46 -306 -74 -24 -37 -3 -70 144 -220
75 -77 158 -163 184 -190 l47 -50 -39 -245 c-52 -320 -51 -360 6 -360 30 0 55
12 296 146 102 57 192 104 198 104 6 0 96 -47 198 -104 295 -164 298 -165 326
-124 23 32 20 66 -24 338 l-40 244 43 46 c23 24 106 110 184 191 135 138 159
173 151 216 -6 30 -49 42 -285 78 -125 19 -237 37 -249 40 -15 3 -46 59 -129
235 -74 159 -118 239 -138 256 -32 27 -33 27 -64 12z"/>
<path d="M6817 7958 c-14 -13 -73 -126 -131 -253 -59 -126 -109 -231 -110
-233 -2 -1 -106 -19 -232 -38 -269 -41 -298 -48 -318 -75 -27 -39 -1 -76 191
-270 l184 -187 -40 -249 c-46 -280 -48 -312 -23 -343 16 -19 22 -21 53 -12 20
5 133 64 252 130 l217 120 225 -124 c124 -68 238 -127 254 -130 22 -5 32 -1
45 17 23 34 21 72 -24 347 l-40 246 163 166 c90 91 176 180 190 198 34 42 36
86 5 106 -30 18 -36 19 -302 61 -126 19 -230 36 -232 38 -1 1 -48 101 -104
222 -56 121 -113 235 -127 253 -29 38 -61 42 -96 10z"/>
<path d="M1708 6467 c-16 -18 -69 -115 -117 -217 l-87 -185 -209 -33 c-247
-38 -265 -43 -265 -83 0 -23 30 -60 160 -196 97 -102 160 -176 160 -188 0 -11
-14 -99 -30 -195 -42 -247 -40 -300 14 -300 11 0 107 47 212 105 106 58 196
105 202 105 5 0 92 -46 193 -101 126 -69 195 -102 219 -103 58 -2 59 20 17
281 l-37 226 159 162 c159 161 186 200 161 230 -17 21 -52 29 -272 60 l-197
29 -87 185 c-48 102 -96 198 -106 212 -28 42 -57 44 -90 6z"/>
<path d="M8223 6489 c-26 -10 -25 -8 -135 -239 l-88 -185 -197 -31 c-109 -17
-213 -34 -231 -38 -37 -9 -56 -37 -46 -68 4 -12 78 -95 165 -183 l159 -162
-37 -227 c-42 -260 -41 -282 17 -280 24 1 93 33 219 103 101 55 188 101 194
101 6 0 92 -45 193 -100 189 -104 239 -124 255 -99 16 25 10 107 -21 292 -17
99 -30 188 -28 198 2 9 74 92 161 183 131 139 157 172 157 197 0 21 -6 32 -23
40 -13 6 -119 25 -237 42 l-214 32 -90 191 c-111 233 -125 252 -173 233z"/>
<path d="M4825 6439 c-240 -25 -506 -115 -702 -237 -346 -214 -621 -554 -734
-908 l-23 -72 -52 -6 c-151 -18 -310 -135 -388 -286 -70 -135 -104 -338 -86
-514 30 -299 166 -539 358 -633 51 -25 68 -28 157 -28 178 0 303 57 320 147 5
24 -16 186 -60 479 -74 490 -74 490 -30 683 129 573 613 1023 1200 1117 132
21 362 17 491 -9 451 -89 830 -376 1034 -781 81 -162 150 -417 150 -555 0 -28
-18 -172 -40 -321 -45 -302 -62 -357 -153 -508 -79 -132 -133 -202 -232 -301
-203 -203 -451 -335 -755 -402 -53 -12 -149 -19 -325 -23 -244 -6 -251 -7
-282 -30 -51 -38 -67 -83 -67 -181 0 -106 19 -150 79 -186 l43 -25 290 3 c275
3 292 4 319 24 38 28 73 99 73 150 l0 41 81 22 c159 44 323 123 499 241 110
74 321 278 394 383 26 37 54 67 62 67 8 0 47 -9 86 -20 41 -11 103 -20 143
-20 207 0 401 211 477 518 32 126 31 359 0 487 -68 274 -249 454 -458 455
l-40 0 -38 103 c-131 355 -347 635 -648 837 -342 230 -741 331 -1143 289z"/>
<path d="M4870 5914 c-14 -2 -56 -9 -94 -15 -408 -67 -767 -375 -901 -773 -46
-136 -58 -212 -59 -366 0 -159 10 -241 49 -374 123 -423 503 -752 943 -816
132 -20 365 -8 485 23 634 167 1000 787 847 1435 -91 386 -378 700 -755 826
-44 15 -111 34 -150 42 -68 15 -314 27 -365 18z m-399 -610 c267 -200 768
-200 1048 0 l43 31 59 -63 c67 -73 138 -204 169 -312 31 -107 37 -272 16 -380
-43 -213 -164 -397 -338 -517 -97 -67 -140 -88 -245 -119 -75 -23 -107 -27
-223 -28 -143 -1 -202 10 -322 58 -184 75 -346 231 -432 418 -57 123 -70 186
-71 348 0 168 16 234 91 381 39 76 143 209 163 209 4 0 23 -12 42 -26z"/>
<path d="M4075 3140 c-592 -151 -1035 -439 -1317 -859 -173 -259 -305 -614
-296 -801 5 -126 42 -158 239 -210 619 -163 1841 -276 2624 -242 800 35 1503
122 1964 242 196 51 234 84 239 209 3 66 -2 99 -31 207 -189 691 -669 1172
-1403 1405 l-71 22 -154 -76 c-85 -41 -181 -85 -215 -97 -58 -20 -61 -24 -89
-82 -39 -82 -113 -161 -183 -195 l-57 -28 -320 0 -320 0 -65 31 c-139 66 -225
186 -237 330 l-6 71 -91 49 c-50 27 -93 50 -96 51 -3 0 -54 -11 -115 -27z"/>
</g>
</svg>
